# xmcd
#
# Track frame offsets:
# 150
# 11269
# 23498
# 34473
# 42123
# 51059
# 65970
# 82169
# 95924
# 108674
# 120576
# 130524
# 145376
# 157064
# 171363
# 182307
# 197267
# 209244
# 218627
# 233590
# 246408
# 257474
# 271137
# 280492
# 292789
#
# Disc length: 4056 seconds
#
#
# Revision: 0
# Processed by: cddbd v1.4PL0 Copyright (c) Steve Scherf et al.
# Submitted via: FreeRIP 2.40 
#
DISCID=6e0fd619
DTITLE=Lonnie Donegan - Puttin' on the Style: The Greatest Hits
DYEAR=2003
DGENRE=Oldies
TTITLE0=Rock Island Line
TTITLE1=Lost John
TTITLE2=Bring a Little Water, Sylvie
TTITLE3=Don't You Rock Me Daddy-O
TTITLE4=Cumberland Gap
TTITLE5=Gamblin' Man
TTITLE6=Puttin' on the Style
TTITLE7=My Dixie Darling
TTITLE8=Jack O' Diamonds
TTITLE9=Grand Coolie Dam
TTITLE10=Sally Don't You Grieve
TTITLE11=Tom Dooley
TTITLE12=Don't Your Chewing Gum Lose It's Flavour
TTITLE13=Battle of New Orleans
TTITLE14=Sal's Got a Sugar Lip
TTITLE15=My Old Man's a Dustman
TTITLE16=I Wanna Go Home
TTITLE17=Lorelei
TTITLE18=Lively!
TTITLE19=Have a Drink on Me
TTITLE20=Michael Row the Boat
TTITLE21=Lumbered
TTITLE22=The Comancheros
TTITLE23=The Party's Over
TTITLE24=Pick a Bale of Cotton
EXTD=
EXTT0=
EXTT1=
EXTT2=
EXTT3=
EXTT4=
EXTT5=
EXTT6=
EXTT7=
EXTT8=
EXTT9=
EXTT10=
EXTT11=
EXTT12=
EXTT13=
EXTT14=
EXTT15=
EXTT16=
EXTT17=
EXTT18=
EXTT19=
EXTT20=
EXTT21=
EXTT22=
EXTT23=
EXTT24=
PLAYORDER=
